#!OML:ASF F:\VICON\USERDATA\INSTALL\rory3\rory3.ASF
:FULLY-SPECIFIED
:DEGREES
115
root 0.592484 18.6888 24.2671 2.50927 1.22769 -5.7985
lowerback 11.6963 3.07866 8.57032
upperback -2.53797 5.53287 1.4056
thorax -8.65241 2.2697 -4.31671
lowerneck -19.0699 -5.92918 -2.53633
upperneck 13.9134 -8.31649 5.12734
head 7.74358 -3.59449 1.08535
rclavicle 1.00622e-013 1.63003e-014
rhumerus -40.2055 17.9867 -96.403
rradius 117.492
rwrist -15.7576
rhand -16.3214 39.9474
rfingers 7.12502
rthumb 9.89011 10.1997
lclavicle 1.00622e-013 1.63003e-014
lhumerus -68.5744 -5.41192 95.3029
lradius 115.84
lwrist 34.7596
lhand -22.0194 2.95495
lfingers 7.12502
lthumb 4.39007 32.8895
rfemur 14.9501 8.59624 35.3576
rtibia 40.9396
rfoot 22.9974 -4.38667
rtoes 5.31337
lfemur -35.8384 0.346499 -18.488
ltibia 32.8709
lfoot 4.40188 -13.2704
ltoes -12.0978
116
root 0.58541 18.6685 24.7831 2.38113 1.09099 -6.08532
lowerback 11.7742 3.14214 8.56771
upperback -2.4012 5.6261 1.53294
thorax -8.54846 2.32739 -4.19483
lowerneck -19.3459 -5.90287 -2.5987
upperneck 13.7249 -8.27392 5.27225
head 7.73573 -3.56151 1.14339
rclavicle 5.83806e-014 3.4191e-014
rhumerus -40.2821 18.2051 -96.5987
rradius 117.249
rwrist -15.751
rhand -16.2636 39.5362
rfingers 7.12502
rthumb 9.94585 9.79117
lclavicle 5.83806e-014 3.4191e-014
lhumerus -68.4539 -5.22068 95.2953
lradius 116.396
lwrist 34.6314
lhand -22.1637 2.52885
lfingers 7.12502
lthumb 4.25069 32.4662
rfemur 14.261 8.77017 35.7535
rtibia 44.3835
rfoot 22.0673 -5.19858
rtoes 5.20679
lfemur -34.5733 0.415363 -18.2828
ltibia 30.1168
lfoot 4.72066 -12.1116
ltoes -15.2865
117
root 0.577984 18.6457 25.3018 2.12637 0.884535 -5.96921
lowerback 11.9223 3.21447 8.15401
upperback -2.16291 5.65984 1.55522
thorax -8.40575 2.37841 -3.9507
lowerneck -19.5818 -5.88964 -2.54787
upperneck 13.4185 -8.24438 5.26466
head 7.66995 -3.54736 1.13439
rclavicle -2.76435e-014 1.78906e-015
rhumerus -40.3535 18.3971 -96.858
rradius 116.848
rwrist -15.5317
rhand -16.2906 39.0319
rfingers 7.12502
rthumb 9.91979 9.2856
lclavicle -2.76435e-014 1.78906e-015
lhumerus -67.9284 -5.12223 95.3368
lradius 116.608
lwrist 34.4071
lhand -21.655 2.18496
lfingers 7.12502
lthumb 4.74194 32.1119
rfemur 13.5106 8.90093 35.6943
rtibia 48.1406
rfoot 21.4388 -6.43273
rtoes 5.22269
lfemur -33.1852 0.38455 -18.4565
ltibia 27.9645
lfoot 5.23126 -10.9262
ltoes -17.5493
118
root 0.576787 18.6069 25.8178 1.89354 0.947388 -5.69891
lowerback 11.7873 3.17546 7.68692
upperback -1.8682 5.5008 1.52647
thorax -8.06107 2.34807 -3.67507
lowerneck -19.5645 -5.89104 -2.53971
upperneck 12.967 -8.23922 5.3698
head 7.52204 -3.54451 1.17344
rclavicle -4.81804e-014 6.95746e-015
rhumerus -40.244 18.5386 -97.0204
rradius 116.171
rwrist -15.3377
rhand -16.3228 38.7847
rfingers 7.12502
rthumb 9.88869 9.03691
lclavicle -4.81804e-014 6.95746e-015
lhumerus -67.1866 -5.02087 95.4054
lradius 116.733
lwrist 34.1548
lhand -20.8034 1.95225
lfingers 7.12502
lthumb 5.56415 31.8592
rfemur 12.5215 8.63936 35.3011
rtibia 52.1079
rfoot 21.1607 -7.44269
rtoes 5.12079
lfemur -31.9847 0.148617 -18.8432
ltibia 26.4304
lfoot 5.90859 -10.315
ltoes -18.1592
119
root 0.575236 18.5567 26.3239 1.71658 1.11067 -5.24593
lowerback 11.7221 3.12725 7.04772
upperback -1.66505 5.31538 1.42841
thorax -7.86634 2.29923 -3.3833
lowerneck -19.429 -5.85724 -2.55983
upperneck 12.6138 -8.19469 5.52079
head 7.38928 -3.52041 1.23844
rclavicle 3.91854e-014 1.98785e-016
rhumerus -40.2807 18.5736 -97.1442
rradius 115.42
rwrist -15.1754
rhand -16.6904 38.7063
rfingers 7.12502
rthumb 9.53409 8.94201
lclavicle 3.91854e-014 1.98785e-016
lhumerus -66.6391 -5.00649 95.5544
lradius 117.129
lwrist 33.9371
lhand -20.4103 1.81874
lfingers 7.12502
lthumb 5.9437 31.7154
rfemur 11.3102 8.13269 34.5526
rtibia 56.2608
rfoot 21.1099 -8.23166
rtoes 5.2805
lfemur -30.8957 -0.0243819 -19.4854
ltibia 25.3427
lfoot 6.64073 -10.739
ltoes -17.8632
120
root 0.565547 18.4913 26.8241 1.30917 1.3316 -4.84002
lowerback 12.131 3.04846 6.44624
upperback -1.53673 5.13925 1.30488
thorax -8.01635 2.23319 -3.17781
lowerneck -19.0777 -5.7557 -2.58829
upperneck 12.2343 -8.08536 5.83172
head 7.21802 -3.45613 1.36955
rclavicle 2.22266e-014 -2.24627e-014
rhumerus -40.6713 18.2848 -97.4291
rradius 114.751
rwrist -15.084
rhand -16.7963 38.5488
rfingers 7.12502
rthumb 9.43192 8.77986
lclavicle 2.22266e-014 -2.24627e-014
lhumerus -66.214 -5.27309 95.6982
lradius 117.588
lwrist 33.8452
lhand -20.4254 1.91104
lfingers 7.12502
lthumb 5.92908 31.8081
rfemur 10.1468 7.3505 33.8062
rtibia 60.5286
rfoot 21.0881 -9.13572
rtoes 5.69678
lfemur -29.7519 -0.144866 -20.0542
ltibia 24.9009
lfoot 7.04549 -11.5811
ltoes -17.583
121
root 0.553431 18.4043 27.3234 0.667915 1.76486 -4.36121
lowerback 12.8889 2.8851 5.84869
upperback -1.42444 4.86788 1.12416
thorax -8.38414 2.10993 -3.04022
lowerneck -18.8627 -5.69999 -2.58921
upperneck 12.0989 -8.0514 6.10437
head 7.15001 -3.42223 1.4683
rclavicle 4.36829e-014 1.39149e-014
rhumerus -41.2452 17.759 -97.8041
rradius 114.109
rwrist -15.0957
rhand -16.7574 38.3179
rfingers 7.12502
rthumb 9.4694 8.55062
lclavicle 4.36829e-014 1.39149e-014
lhumerus -65.6291 -5.65535 95.7828
lradius 117.847
lwrist 33.7369
lhand -20.3161 2.30292
lfingers 7.12502
lthumb 6.03461 32.197
rfemur 9.03286 6.28712 32.9626
rtibia 64.8742
rfoot 20.9933 -10.5502
rtoes 5.25377
lfemur -28.4581 -0.310461 -20.7194
ltibia 25.004
lfoot 7.13922 -12.326
ltoes -17.3478
122
root 0.535911 18.2951 27.8192 0.140811 2.4196 -4.39826
lowerback 13.4642 2.61624 5.68485
upperback -1.36795 4.52339 1.12807
thorax -8.69511 1.93875 -2.91648
lowerneck -18.5428 -5.65054 -2.46288
upperneck 11.9725 -8.01062 6.08833
head 7.04796 -3.40846 1.45649
rclavicle -4.74598e-015 -1.49089e-014
rhumerus -41.9985 17.3101 -98.1653
rradius 113.497
rwrist -15.221
rhand -16.5426 38.1904
rfingers 7.12502
rthumb 9.67671 8.43265
lclavicle -4.74598e-015 -1.49089e-014
lhumerus -64.8929 -6.01836 95.9536
lradius 117.871
lwrist 33.328
lhand -20.1136 2.23786
lfingers 7.12502
lthumb 6.2301 32.1262
rfemur 7.68344 4.90445 32.5998
rtibia 69.2117
rfoot 21.2036 -11.6858
rtoes 3.32171
lfemur -27.4241 -0.226312 -20.91
ltibia 25.5203
lfoot 6.896 -13.4231
ltoes -16.2392
123
root 0.516893 18.1657 28.3191 -0.296478 2.99917 -4.24085
lowerback 13.6754 2.3925 5.18457
upperback -1.14597 4.14823 1.14665
thorax -8.64009 1.7874 -2.55016
lowerneck -18.4639 -5.56323 -2.45256
upperneck 11.8617 -7.91115 6.22248
head 7.00052 -3.35249 1.51296
rclavicle -4.17945e-014 3.04141e-014
rhumerus -42.5077 16.9734 -98.4108
rradius 112.72
rwrist -15.32
rhand -16.6491 38.7655
rfingers 7.12502
rthumb 9.57391 9.00306
lclavicle -4.17945e-014 3.04141e-014
lhumerus -63.882 -6.4971 96.1723
lradius 118.011
lwrist 33.0836
lhand -20.1604 2.28058
lfingers 7.12502
lthumb 6.18496 32.1703
rfemur 6.43667 3.4102 31.8517
rtibia 73.4745
rfoot 21.2033 -12.0814
rtoes 1.38517
lfemur -26.5775 -0.0939187 -21.251
ltibia 26.5127
lfoot 6.02988 -14.7109
ltoes -9.47397
124
root 0.504398 18.0368 28.8235 -0.709132 3.47989 -3.42013
lowerback 13.8151 2.26942 4.05486
upperback -0.820077 3.77755 0.989699
thorax -8.45046 1.66695 -2.01049
lowerneck -18.703 -5.54203 -2.6142
upperneck 11.9421 -7.88751 6.48371
head 7.0844 -3.31733 1.61998
rclavicle -2.08724e-014 1.88845e-015
rhumerus -42.7903 16.5362 -98.4517
rradius 111.705
rwrist -15.7377
rhand -16.6733 40.1629
rfingers 7.12502
rthumb 9.55062 10.3994
lclavicle -2.08724e-014 1.88845e-015
lhumerus -62.5524 -7.16666 96.4203
lradius 118.129
lwrist 32.9167
lhand -20.7245 2.74173
lfingers 7.12502
lthumb 5.64033 32.6467
rfemur 5.23232 1.98416 30.1533
rtibia 77.7763
rfoot 20.2766 -12.3941
rtoes 18.5637
lfemur -25.9518 -0.135584 -22.2389
ltibia 28.4707
lfoot 3.72707 -16.0372
ltoes 0.299355
125
root 0.510095 17.9196 29.3245 -0.877424 4.07836 -2.67039
lowerback 13.947 2.06062 3.25349
upperback -0.758832 3.35221 0.773534
thorax -8.51421 1.49121 -1.71077
lowerneck -18.6741 -5.57388 -2.76917
upperneck 12.1743 -7.94509 6.69913
head 7.17477 -3.32732 1.70596
rclavicle 1.34304e-014 1.49089e-015
rhumerus -43.465 15.8378 -98.4937
rradius 110.996
rwrist -15.1068
rhand -16.2969 39.8287
rfingers 7.12502
rthumb 9.91373 10.0821
lclavicle 1.34304e-014 1.49089e-015
lhumerus -61.4911 -7.86327 96.8022
lradius 118.396
lwrist 32.9778
lhand -21.3741 2.83424
lfingers 7.12502
lthumb 5.01309 32.7549
rfemur 3.43347 0.510002 28.2754
rtibia 82.128
rfoot 19.1034 -12.5226
rtoes 22.2
lfemur -25.4356 -0.373632 -23.1924
ltibia 30.767
lfoot 0.986234 -16.6019
ltoes 5.81426
126
root 0.523021 17.7987 29.8174 -0.837874 4.6583 -2.40819
lowerback 14.0283 1.78506 3.16426
upperback -0.782486 2.95585 0.554198
thorax -8.59735 1.29622 -1.8177
lowerneck -18.7278 -5.56888 -2.66416
upperneck 12.3769 -7.98909 6.75194
head 7.25093 -3.33205 1.69837
rclavicle -3.64832e-014 7.65321e-015
rhumerus -44.2322 15.2353 -98.9441
rradius 110.44
rwrist -14.9246
rhand -15.9493 37.2766
rfingers 7.12502
rthumb 10.2491 7.5463
lclavicle -3.64832e-014 7.65321e-015
lhumerus -60.3573 -8.71597 97.0471
lradius 118.793
lwrist 33.133
lhand -21.1773 4.23122
lfingers 7.12502
lthumb 5.20315 34.1473
rfemur 0.700681 -0.896953 26.9466
rtibia 86.5483
rfoot 18.4192 -12.4123
rtoes 23.8736
lfemur -24.855 -0.458036 -23.772
ltibia 33.694
lfoot -3.83405 -16.0257
ltoes 3.14369
127
root 0.514392 17.7047 30.3205 -0.930662 4.84681 -2.20811
lowerback 14.2932 1.68469 2.73715
upperback -0.707128 2.74871 0.451745
thorax -8.69069 1.21149 -1.65272
lowerneck -19.0349 -5.54572 -2.48279
upperneck 12.5453 -7.9988 6.66772
head 7.34712 -3.32413 1.63338
rclavicle 3.63683e-014 -5.86415e-015
rhumerus -44.7705 14.5843 -99.2632
rradius 109.752
rwrist -14.7291
rhand -15.949 36.3362
rfingers 7.12502
rthumb 10.2494 6.60596
lclavicle 3.63683e-014 -5.86415e-015
lhumerus -58.9044 -9.60491 97.2226
lradius 118.967
lwrist 33.4598
lhand -22.9574 5.36597
lfingers 7.12502
lthumb 3.48428 35.3172
rfemur -2.36343 -2.08096 25.8433
rtibia 91.0289
rfoot 18.0336 -12.3648
rtoes 23.996
lfemur -24.2151 -0.254278 -24.1973
ltibia 36.6055
lfoot -8.2491 -14.7381
ltoes 1.89726
128
root 0.483672 17.5693 30.8095 -1.11354 4.74574 -2.27134
lowerback 14.5672 1.64525 2.20011
upperback -0.565671 2.61682 0.539076
thorax -8.72618 1.17461 -1.23595
lowerneck -19.3583 -5.48727 -2.38039
upperneck 12.6622 -7.94512 6.63203
head 7.43167 -3.28623 1.6048
rclavicle 1.33574e-014 2.70844e-015
rhumerus -45.2371 14.0769 -99.5635
rradius 108.945
rwrist -14.7352
rhand -16.1846 36.7953
rfingers 7.12502
rthumb 10.022 7.05395
lclavicle 1.33574e-014 2.70844e-015
lhumerus -57.2127 -10.3345 97.3326
lradius 118.957
lwrist 33.8046
lhand -20.1476 2.93804
lfingers 7.12502
lthumb 6.1973 32.8274
rfemur -4.27269 -2.86854 25.2947
rtibia 94.6584
rfoot 17.5172 -12.2444
rtoes 22.8047
lfemur -23.8757 -0.163917 -24.1365
ltibia 39.5326
lfoot -11.4469 -12.7037
ltoes 2.99497
129
root 0.464791 17.4597 31.2854 -1.27618 4.74494 -1.74775
lowerback 14.9216 1.60447 1.22751
upperback -0.346311 2.38973 0.463141
thorax -8.73197 1.10762 -0.727153
lowerneck -19.5038 -5.43856 -2.43576
upperneck 12.4248 -7.88197 6.8407
head 7.38729 -3.24166 1.68844
rclavicle 1.33935e-014 -3.68062e-015
rhumerus -45.6848 13.6457 -99.7529
rradius 108.102
rwrist -15.0055
rhand -16.5295 37.5744
rfingers 7.12502
rthumb 9.68933 7.81721
lclavicle 1.33935e-014 -3.68062e-015
lhumerus -55.2109 -11.098 97.3945
lradius 118.816
lwrist 34.0999
lhand -19.7008 2.01875
lfingers 7.12502
lthumb 6.62865 31.895
rfemur -6.52347 -3.81314 23.9589
rtibia 98.2587
rfoot 16.9441 -11.5651
rtoes 21.1635
lfemur -23.2098 -0.529013 -24.6672
ltibia 41.6887
lfoot -12.9657 -11.1616
ltoes 11.5745
